<svg width="24" height="25" viewBox="0 0 24 25" fill="none" xmlns="http://www.w3.org/2000/svg">
<path fill-rule="evenodd" clip-rule="evenodd" d="M19.1001 19.6561C19.6901 18.7561 19.9101 18.2961 20.3601 17.2861C17.0401 16.0261 16.5101 11.2961 19.7901 9.48608C18.7901 8.22608 17.3801 7.49609 16.0501 7.49609C15.0901 7.49609 14.4301 7.7461 13.8401 7.9761C13.3401 8.1661 12.8901 8.33609 12.3301 8.33609C11.7301 8.33609 11.2001 8.14611 10.6401 7.94611C10.0301 7.72611 9.39006 7.49609 8.59006 7.49609C7.10006 7.49609 5.51007 8.4061 4.50007 9.96609C3.08007 12.1661 3.33007 16.2861 5.62007 19.8061C6.44007 21.0661 7.54007 22.4761 8.97007 22.4961C9.57007 22.5061 9.96007 22.3261 10.3901 22.1361C10.8801 21.9161 11.4101 21.6761 12.3401 21.6761C13.2701 21.6661 13.7901 21.9161 14.2801 22.1361C14.7001 22.3261 15.0801 22.5061 15.6701 22.4961C17.1201 22.4761 18.2801 20.9161 19.1001 19.6561Z" fill="white"/>
<path fill-rule="evenodd" clip-rule="evenodd" d="M15.8404 2.49609C16.0004 3.59609 15.5504 4.68611 14.9604 5.44611C14.3304 6.26611 13.2304 6.90609 12.1704 6.86609C11.9804 5.80609 12.4704 4.71608 13.0704 3.98608C13.7404 3.18608 14.8704 2.56609 15.8404 2.49609Z" fill="white"/>
</svg>
