<svg width="32" height="33" viewBox="0 0 32 33" fill="none" xmlns="http://www.w3.org/2000/svg">
<path d="M9.20033 27.9626C11.2003 29.1626 13.6003 29.8293 16.0003 29.8293C23.3337 29.8293 29.3337 23.8293 29.3337 16.4959C29.3337 9.1626 23.3337 3.1626 16.0003 3.1626C8.66699 3.1626 2.66699 9.1626 2.66699 16.4959C2.66699 18.8959 3.33366 21.1626 4.40033 23.1626L3.10743 28.1353C2.91271 28.8842 3.60592 29.561 4.34998 29.3484L9.20033 27.9626Z" stroke="#EFF6FF" stroke-width="1.5" stroke-miterlimit="10" stroke-linecap="round" stroke-linejoin="round"/>
<path d="M22 20.2941C22 20.5101 21.9519 20.7321 21.8498 20.9481C21.7476 21.1641 21.6154 21.3681 21.4412 21.5601C21.1467 21.8841 20.8222 22.1181 20.4557 22.2681C20.0951 22.4181 19.7046 22.4961 19.2839 22.4961C18.671 22.4961 18.016 22.3521 17.325 22.0581C16.634 21.7641 15.9429 21.3681 15.2579 20.8701C14.5669 20.3661 13.9119 19.8081 13.2869 19.1901C12.668 18.5661 12.1092 17.9121 11.6104 17.2281C11.1177 16.5441 10.7211 15.8601 10.4326 15.1821C10.1442 14.4981 10 13.8441 10 13.2201C10 12.8121 10.0721 12.4221 10.2163 12.0621C10.3605 11.6961 10.5889 11.3601 10.9074 11.0601C11.2919 10.6821 11.7126 10.4961 12.1572 10.4961C12.3255 10.4961 12.4937 10.5321 12.644 10.6041C12.8002 10.6761 12.9384 10.7841 13.0466 10.9401L14.4407 12.9021C14.5488 13.0521 14.6269 13.1901 14.681 13.3221C14.7351 13.4481 14.7651 13.5741 14.7651 13.6881C14.7651 13.8321 14.7231 13.9761 14.639 14.1141C14.5608 14.2521 14.4467 14.3961 14.3025 14.5401L13.8458 15.0141C13.7797 15.0801 13.7496 15.1581 13.7496 15.2541C13.7496 15.3021 13.7556 15.3441 13.7677 15.3921C13.7857 15.4401 13.8037 15.4761 13.8157 15.5121C13.9239 15.7101 14.1102 15.9681 14.3746 16.2801C14.645 16.5921 14.9334 16.9101 15.2459 17.2281C15.5704 17.5461 15.8828 17.8401 16.2013 18.1101C16.5138 18.3741 16.7722 18.5541 16.9765 18.6621C17.0065 18.6741 17.0426 18.6921 17.0846 18.7101C17.1327 18.7281 17.1808 18.7341 17.2349 18.7341C17.337 18.7341 17.4151 18.6981 17.4812 18.6321L17.9379 18.1821C18.0881 18.0321 18.2323 17.9181 18.3706 17.8461C18.5088 17.7621 18.647 17.7201 18.7972 17.7201C18.9114 17.7201 19.0315 17.7441 19.1637 17.7981C19.2959 17.8521 19.4342 17.9301 19.5844 18.0321L21.5734 19.4421C21.7296 19.5501 21.8378 19.6761 21.9039 19.8261C21.9639 19.9761 22 20.1261 22 20.2941Z" stroke="#EFF6FF" stroke-width="1.5" stroke-miterlimit="10"/>
</svg>
