<svg width="48" height="48" viewBox="0 0 48 48" fill="none" xmlns="http://www.w3.org/2000/svg">
<path d="M17.3601 25.4402H20.8401V33.5402C20.8401 34.7402 22.3201 35.3002 23.1201 34.4002L31.6401 24.7202C32.3801 23.8802 31.7801 22.5602 30.6601 22.5602H27.1801V14.4602C27.1801 13.2602 25.7001 12.7002 24.9001 13.6002L16.3801 23.2802C15.6401 24.1202 16.2401 25.4402 17.3601 25.4402Z" stroke="#1F2937" stroke-width="2.5" stroke-miterlimit="10" stroke-linecap="round" stroke-linejoin="round"/>
<path d="M23.9404 44C34.9861 44 43.9404 35.0457 43.9404 24C43.9404 12.9543 34.9861 4 23.9404 4C12.8947 4 3.94043 12.9543 3.94043 24C3.94043 35.0457 12.8947 44 23.9404 44Z" stroke="#1F2937" stroke-width="2.5" stroke-miterlimit="10" stroke-linecap="round" stroke-linejoin="round"/>
</svg>
