<svg width="57" height="56" viewBox="0 0 57 56" fill="none" xmlns="http://www.w3.org/2000/svg">
<g clip-path="url(#clip0_6899_434)">
<path d="M40.6667 25.6667H45.3333C46.571 25.6667 47.758 26.1583 48.6332 27.0335C49.5083 27.9087 50 29.0957 50 30.3333V35C50 35.6188 49.7542 36.2123 49.3166 36.6499C48.879 37.0875 48.2855 37.3333 47.6667 37.3333H44.1667M40.6667 25.6667H25.5M40.6667 25.6667L35.027 16.2657C34.6124 15.5746 34.0259 15.0028 33.3246 14.6057C32.6233 14.2087 31.8312 14 31.0253 14H25.5M44.1667 37.3333C44.1667 38.571 43.675 39.758 42.7998 40.6332C41.9247 41.5083 40.7377 42 39.5 42C38.2623 42 37.0753 41.5083 36.2002 40.6332C35.325 39.758 34.8333 38.571 34.8333 37.3333M44.1667 37.3333C44.1667 36.0957 43.675 34.9087 42.7998 34.0335C41.9247 33.1583 40.7377 32.6667 39.5 32.6667C38.2623 32.6667 37.0753 33.1583 36.2002 34.0335C35.325 34.9087 34.8333 36.0957 34.8333 37.3333M25.5 25.6667V14M25.5 25.6667H12.6667M25.5 14H18.8267C17.7474 13.9996 16.7014 14.3732 15.8667 15.0573C15.032 15.7414 14.4602 16.6937 14.2487 17.752L12.6667 25.6667M12.6667 25.6667C11.429 25.6667 10.242 26.1583 9.36683 27.0335C8.49167 27.9087 8 29.0957 8 30.3333V35C8 35.6188 8.24583 36.2123 8.68342 36.6499C9.121 37.0875 9.71449 37.3333 10.3333 37.3333H13.8333M13.8333 37.3333C13.8333 38.571 14.325 39.758 15.2002 40.6332C16.0753 41.5083 17.2623 42 18.5 42C19.7377 42 20.9247 41.5083 21.7998 40.6332C22.675 39.758 23.1667 38.571 23.1667 37.3333M13.8333 37.3333C13.8333 36.0957 14.325 34.9087 15.2002 34.0335C16.0753 33.1583 17.2623 32.6667 18.5 32.6667C19.7377 32.6667 20.9247 33.1583 21.7998 34.0335C22.675 34.9087 23.1667 36.0957 23.1667 37.3333M23.1667 37.3333H34.8333" stroke="white" stroke-width="3" stroke-linecap="round" stroke-linejoin="round"/>
</g>
<defs>
<clipPath id="clip0_6899_434">
<rect width="56" height="56" fill="white" transform="translate(0.5)"/>
</clipPath>
</defs>
</svg>
