<svg width="48" height="48" viewBox="0 0 48 48" fill="none" xmlns="http://www.w3.org/2000/svg">
<path d="M24 4.25C34.8896 4.25 43.75 13.1104 43.75 24C43.75 34.8896 34.8896 43.75 24 43.75C13.1104 43.75 4.25 34.8896 4.25 24C4.25 13.1104 13.1104 4.25 24 4.25ZM24 4.75C13.3796 4.75 4.75 13.3796 4.75 24C4.75 34.6204 13.3796 43.25 24 43.25C34.6204 43.25 43.25 34.6204 43.25 24C43.25 13.3796 34.6204 4.75 24 4.75Z" fill="#1F2937" stroke="#1F2937" stroke-width="2.5"/>
<path d="M22.5 13.25C22.5847 13.25 22.6424 13.2811 22.6807 13.3193C22.7189 13.3576 22.75 13.4153 22.75 13.5V25.3691L23.3594 25.7334L30.1299 29.7773C30.1759 29.8064 30.2115 29.8496 30.2314 29.9004C30.2518 29.9521 30.2541 30.009 30.2393 30.0625C30.2243 30.116 30.1926 30.1635 30.1484 30.1973C30.1047 30.2306 30.0511 30.2484 29.9961 30.249C29.9164 30.2485 29.8873 30.2332 29.8828 30.2305L29.873 30.2236L29.8633 30.2178L22.3662 25.7188C22.3313 25.6965 22.3015 25.667 22.2812 25.6309C22.2602 25.5932 22.2497 25.55 22.25 25.5068V13.5C22.25 13.4153 22.2811 13.3576 22.3193 13.3193C22.3576 13.2811 22.4153 13.25 22.5 13.25Z" fill="#1F2937" stroke="#1F2937" stroke-width="2.5"/>
</svg>
