<svg width="57" height="56" viewBox="0 0 57 56" fill="none" xmlns="http://www.w3.org/2000/svg">
<g clip-path="url(#clip0_6899_411)">
<path d="M46.4993 44.3337C49.721 44.3337 52.3327 41.722 52.3327 38.5003C52.3327 35.2787 49.721 32.667 46.4993 32.667C43.2777 32.667 40.666 35.2787 40.666 38.5003C40.666 41.722 43.2777 44.3337 46.4993 44.3337Z" stroke="white" stroke-width="3" stroke-linecap="round" stroke-linejoin="round"/>
<path d="M11.4993 44.3337C14.721 44.3337 17.3327 41.722 17.3327 38.5003C17.3327 35.2787 14.721 32.667 11.4993 32.667C8.27769 32.667 5.66602 35.2787 5.66602 38.5003C5.66602 41.722 8.27769 44.3337 11.4993 44.3337Z" stroke="white" stroke-width="3" stroke-linecap="round" stroke-linejoin="round"/>
<path d="M48.2146 18.3637C51.2036 22.0013 52.2443 25.4617 52.3306 27.291C50.7072 26.5495 48.9424 26.1682 47.1576 26.1733C41.4526 26.1733 36.331 29.9673 35.1083 35.0213C34.8143 36.23 34.6696 36.8343 34.3523 37.084C34.035 37.3337 33.5216 37.3337 32.4973 37.3337H25.782C24.7483 37.3337 24.2326 37.3337 23.9153 37.0817C23.5956 36.825 23.4556 36.2253 23.178 35.0213C22.0206 30.0327 17.326 25.695 12.4376 26.0613C11.9453 26.101 11.698 26.1197 11.5276 26.08C11.362 26.0427 11.1916 25.947 10.851 25.7533C9.86864 25.2003 8.86531 24.673 7.90164 24.0873C7.24107 23.6847 6.69094 23.1242 6.30075 22.4563C5.91056 21.7883 5.69254 21.0338 5.66631 20.2607C5.63598 19.3647 6.14931 18.478 7.18764 18.7207L22.1676 22.2463C23.2946 22.5123 23.857 22.643 24.34 22.5543C24.823 22.4657 25.418 22.0597 26.6033 21.2477C29.6086 19.1943 34.3733 17.2507 39.1216 18.9657C40.4213 19.4347 41.0723 19.6703 41.441 19.682C41.8143 19.6937 42.3556 19.535 43.4406 19.22C44.9951 18.761 46.5952 18.4738 48.2123 18.3637C46.341 16.0817 43.6996 13.732 40.0456 11.667" stroke="white" stroke-width="3" stroke-linecap="round" stroke-linejoin="round"/>
</g>
<defs>
<clipPath id="clip0_6899_411">
<rect width="56" height="56" fill="white" transform="translate(0.5)"/>
</clipPath>
</defs>
</svg>
