<svg width="48" height="48" viewBox="0 0 48 48" fill="none" xmlns="http://www.w3.org/2000/svg">
<path d="M17.1406 30.5399L30.2206 17.46" stroke="#1F2937" stroke-width="2.5" stroke-linecap="round" stroke-linejoin="round"/>
<path d="M17.96 20.7403C19.3186 20.7403 20.42 19.639 20.42 18.2803C20.42 16.9217 19.3186 15.8203 17.96 15.8203C16.6014 15.8203 15.5 16.9217 15.5 18.2803C15.5 19.639 16.6014 20.7403 17.96 20.7403Z" stroke="#1F2937" stroke-width="2.5" stroke-linecap="round" stroke-linejoin="round"/>
<path d="M31.04 32.1797C32.3987 32.1797 33.5001 31.0783 33.5001 29.7197C33.5001 28.3611 32.3987 27.2598 31.04 27.2598C29.6814 27.2598 28.5801 28.3611 28.5801 29.7197C28.5801 31.0783 29.6814 32.1797 31.04 32.1797Z" stroke="#1F2937" stroke-width="2.5" stroke-linecap="round" stroke-linejoin="round"/>
<path d="M24 44C35.0457 44 44 35.0457 44 24C44 12.9543 35.0457 4 24 4C12.9543 4 4 12.9543 4 24C4 35.0457 12.9543 44 24 44Z" stroke="#1F2937" stroke-width="2.5" stroke-linecap="round" stroke-linejoin="round"/>
</svg>
