<svg width="21" height="16" viewBox="0 0 21 16" fill="none" xmlns="http://www.w3.org/2000/svg">
<path d="M0.0909092 15.708V11.6171C0.0909092 10.3747 0.310606 9.05649 0.75 7.66255C1.20455 6.25346 1.85606 4.8974 2.70455 3.59437C3.56818 2.27619 4.60606 1.13225 5.81818 0.162552L8.72727 2.52619C7.77273 3.88983 6.93939 5.31407 6.22727 6.79892C5.5303 8.26861 5.18182 9.84437 5.18182 11.5262V15.708H0.0909092ZM11.7273 15.708V11.6171C11.7273 10.3747 11.947 9.05649 12.3864 7.66255C12.8409 6.25346 13.4924 4.8974 14.3409 3.59437C15.2045 2.27619 16.2424 1.13225 17.4545 0.162552L20.3636 2.52619C19.4091 3.88983 18.5758 5.31407 17.8636 6.79892C17.1667 8.26861 16.8182 9.84437 16.8182 11.5262V15.708H11.7273Z" fill="#C40000"/>
</svg>
