<svg width="57" height="56" viewBox="0 0 57 56" fill="none" xmlns="http://www.w3.org/2000/svg">
<path d="M25.0977 20.0857L27.6643 14.8823C27.795 14.6176 27.9971 14.3947 28.2478 14.2389C28.4985 14.083 28.7878 14.0004 29.083 14.0004C29.3782 14.0004 29.6675 14.083 29.9182 14.2389C30.1689 14.3947 30.371 14.6176 30.5017 14.8823L33.0683 20.0857L38.8107 20.9187C40.108 21.1053 40.626 22.7013 39.688 23.6183L35.5347 27.6667L36.5147 33.3833C36.5653 33.6746 36.5333 33.9742 36.4224 34.2482C36.3114 34.5222 36.1259 34.7596 35.8869 34.9336C35.6478 35.1075 35.3648 35.211 35.07 35.2323C34.7751 35.2535 34.4802 35.1918 34.2187 35.054L29.083 32.3543L23.9497 35.054C23.6883 35.1922 23.3933 35.2544 23.0983 35.2335C22.8034 35.2126 22.5201 35.1095 22.2808 34.9357C22.0415 34.762 21.8557 34.5247 21.7444 34.2507C21.6332 33.9767 21.6009 33.677 21.6513 33.3857L22.6313 27.669L18.478 23.6183C18.2662 23.4123 18.1164 23.1511 18.0455 22.8643C17.9745 22.5774 17.9853 22.2765 18.0767 21.9955C18.168 21.7145 18.3362 21.4647 18.5621 21.2744C18.7881 21.0841 19.0629 20.9608 19.3553 20.9187L25.0977 20.0857ZM27.5663 22.2323C27.4524 22.4616 27.2846 22.6598 27.0774 22.8101C26.8701 22.9605 26.6296 23.0584 26.3763 23.0957L22.9837 23.5903L25.4383 25.982C25.6216 26.1612 25.7588 26.3822 25.838 26.626C25.9173 26.8699 25.9362 27.1292 25.8933 27.382L25.3123 30.7607L28.3457 29.1647C28.5731 29.0453 28.8261 28.9829 29.083 28.9829C29.3399 28.9829 29.5929 29.0453 29.8203 29.1647L32.8537 30.7607L32.2727 27.382C32.2298 27.1292 32.2487 26.8699 32.328 26.626C32.4072 26.3822 32.5444 26.1612 32.7277 25.982L35.1823 23.5903L31.792 23.0957C31.5387 23.0584 31.2982 22.9605 31.091 22.8101C30.8838 22.6598 30.716 22.4616 30.602 22.2323L29.083 19.157L27.5663 22.2323ZM15.6663 4.66699C14.1192 4.66699 12.6355 5.28157 11.5416 6.37554C10.4476 7.4695 9.83301 8.95323 9.83301 10.5003V45.5003C9.83301 47.0474 10.4476 48.5312 11.5416 49.6251C12.6355 50.7191 14.1192 51.3337 15.6663 51.3337H46.583C47.0471 51.3337 47.4923 51.1493 47.8204 50.8211C48.1486 50.4929 48.333 50.0478 48.333 49.5837C48.333 49.1195 48.1486 48.6744 47.8204 48.3462C47.4923 48.018 47.0471 47.8337 46.583 47.8337H15.6663C15.0475 47.8337 14.454 47.5878 14.0164 47.1502C13.5788 46.7127 13.333 46.1192 13.333 45.5003H46.583C47.0471 45.5003 47.4923 45.316 47.8204 44.9878C48.1486 44.6596 48.333 44.2145 48.333 43.7503V10.5003C48.333 9.73428 48.1821 8.97574 47.889 8.26801C47.5958 7.56027 47.1661 6.91721 46.6245 6.37554C46.0828 5.83386 45.4397 5.40418 44.732 5.11103C44.0243 4.81788 43.2657 4.66699 42.4997 4.66699H15.6663ZM44.833 42.0003H13.333V10.5003C13.333 9.88149 13.5788 9.28799 14.0164 8.85041C14.454 8.41282 15.0475 8.16699 15.6663 8.16699H42.4997C43.1185 8.16699 43.712 8.41282 44.1496 8.85041C44.5872 9.28799 44.833 9.88149 44.833 10.5003V42.0003Z" fill="white"/>
</svg>
