<svg width="25" height="24" viewBox="0 0 25 24" fill="none" xmlns="http://www.w3.org/2000/svg">
<path d="M14.2299 3.50965L15.9899 7.02965C16.2299 7.51965 16.8699 7.98965 17.4099 8.07965L20.5999 8.60965C22.6399 8.94965 23.1199 10.4296 21.6499 11.8896L19.1699 14.3696C18.7499 14.7896 18.5199 15.5996 18.6499 16.1796L19.3599 19.2496C19.9199 21.6796 18.6299 22.6196 16.4799 21.3496L13.4899 19.5796C12.9499 19.2596 12.0599 19.2596 11.5099 19.5796L8.51991 21.3496C6.37991 22.6196 5.07991 21.6696 5.63991 19.2496L6.34991 16.1796C6.47991 15.5996 6.24991 14.7896 5.82991 14.3696L3.34991 11.8896C1.88991 10.4296 2.35991 8.94965 4.39991 8.60965L7.58991 8.07965C8.11991 7.98965 8.75991 7.51965 8.99991 7.02965L10.7599 3.50965C11.7199 1.59965 13.2799 1.59965 14.2299 3.50965Z" stroke="#EAB308" stroke-width="2" stroke-linecap="round" stroke-linejoin="round"/>
</svg>
