<svg width="24" height="25" viewBox="0 0 24 25" fill="none" xmlns="http://www.w3.org/2000/svg">
<path d="M12 22.7676C6.21 22.7676 1.5 18.0576 1.5 12.2676C1.5 6.47758 6.21 1.76758 12 1.76758C17.79 1.76758 22.5 6.47758 22.5 12.2676C22.5 18.0576 17.79 22.7676 12 22.7676ZM12 3.26758C7.035 3.26758 3 7.30258 3 12.2676C3 17.2326 7.035 21.2676 12 21.2676C16.965 21.2676 21 17.2326 21 12.2676C21 7.30258 16.965 3.26758 12 3.26758Z" fill="#9CA3AF"/>
<path d="M15 16.0176C14.865 16.0176 14.73 15.9876 14.61 15.9126L10.86 13.6626C10.7494 13.5953 10.6582 13.5005 10.5951 13.3875C10.532 13.2744 10.4993 13.147 10.5 13.0176V7.01758C10.5 6.59758 10.83 6.26758 11.25 6.26758C11.67 6.26758 12 6.59758 12 7.01758V12.5976L15.39 14.6226C15.5296 14.7082 15.6376 14.8369 15.6974 14.9894C15.7573 15.1418 15.7658 15.3096 15.7217 15.4673C15.6776 15.6251 15.5833 15.7641 15.4531 15.8634C15.3228 15.9627 15.1638 16.0168 15 16.0176Z" fill="#9CA3AF"/>
</svg>
